<svg width="55" height="40" viewBox="0 0 55 40" fill="none" xmlns="http://www.w3.org/2000/svg">
<path fill-rule="evenodd" clip-rule="evenodd" d="M17.551 7.70799V3.49031H10.3401V13.7284C10.3401 13.8645 9.18367 14.7488 9.08163 14.8508C8.84354 15.0549 8.63945 15.191 8.43537 15.3951C8.19728 15.5991 7.9932 15.7352 7.7551 15.9393C7.34694 16.3474 6.90476 16.6536 6.46258 17.0277L3.87755 19.2046C3.77551 19.3066 3.67347 19.4087 3.57143 19.4767L0.170068 22.3338C0.0680272 22.4359 0.0680272 22.4019 0 22.5039H10.3401V39.4767H18.4354C18.5374 39.4767 18.5374 39.4087 18.6054 39.3066C18.6395 39.2046 18.6735 39.1706 18.7075 39.0685C18.8095 38.9325 18.8775 38.7964 18.9796 38.6604L20.4422 36.0413C20.5782 36.1093 21.3265 37.5719 21.4286 37.742L22.415 39.4767H25.2041C25.2041 39.2046 21.9048 33.6944 21.9048 33.4903C21.9048 33.4223 22.619 32.1978 22.7211 32.0277C22.9932 31.4835 23.2653 31.0073 23.5714 30.4971L25.034 27.9121C25.102 27.776 25.1701 27.64 25.2381 27.5379H22.449L20.9524 30.123C20.8503 30.327 20.5442 30.7692 20.4762 31.0073L20.3401 30.8032C19.7619 29.7148 19.0476 28.5923 18.4694 27.5039H15.7143C15.7143 27.6059 15.7823 27.708 15.8503 27.81L17.415 30.5991C17.517 30.8032 17.6531 31.0073 17.7551 31.2114L18.4694 32.4699C18.6395 32.776 18.8435 33.0821 18.9796 33.3883C19.0816 33.5923 18.7075 34.0685 18.5714 34.3406L16.9728 37.1298C16.9048 37.2318 16.8707 37.4019 16.7687 37.4019H12.3469V20.4291H5.64626C5.81633 20.191 8.12925 18.3542 8.57143 17.9461C8.74149 17.81 8.87755 17.708 9.0136 17.5719L11.9728 15.123C12.0408 15.0549 12.3469 14.8168 12.3469 14.7148V5.53112H15.4762V12.1298L21.2245 7.33384C21.3265 7.26582 21.4286 7.16377 21.5306 7.09575C21.6326 6.99371 21.7347 6.89167 21.8367 6.82364C22.619 6.17738 23.6395 5.25901 24.4218 4.64677C24.5238 4.57874 24.5918 4.51071 24.7279 4.40867C24.8299 4.30663 24.932 4.20459 25.034 4.13656C25.136 4.03452 25.2381 3.9665 25.3741 3.86446C25.4762 3.76242 25.5782 3.69439 25.6803 3.55833C25.9524 3.69439 26.5986 4.30663 26.8707 4.54473L29.2517 6.55153C29.3197 6.61956 29.3537 6.61956 29.3878 6.65357L29.8639 7.02772C30.7143 7.77602 32.2449 9.00051 32.9932 9.68078C33.0612 9.74881 33.0612 9.74881 33.1292 9.81684C33.2653 9.88486 33.3333 9.95289 33.4354 10.0549L34.6258 11.0413C34.7279 11.1434 34.8299 11.2114 34.932 11.3134C35 11.3474 35.2041 11.5515 35.2721 11.5515H52.1769C52.3129 11.5515 52.2789 11.4835 52.2449 11.3815L52.0748 10.5651C52.0068 10.259 51.9048 9.71479 51.8027 9.4767H36.6667C35.6122 9.4767 36.0884 9.51071 35.1701 8.79643L34.8639 8.55833C34.7619 8.49031 34.6939 8.42228 34.5918 8.32024L34.1497 7.94609C33.0952 7.02772 32.0068 6.14337 30.9184 5.25901L29.2857 3.89847C29.2177 3.83044 29.2177 3.83044 29.1497 3.76242L25.8843 1.04133C25.8163 0.973301 25.8163 0.939287 25.7483 0.905273C25.5442 0.939287 25.3741 1.17738 25.2381 1.31344L24.2177 2.12976C24.1156 2.2318 24.0476 2.26582 23.9456 2.36786L20.7823 5.02092C20.034 5.63316 19.3537 6.27942 18.6054 6.85765L17.8231 7.50391C17.7551 7.57194 17.619 7.67398 17.551 7.70799ZM30.3741 29.7488C30.4762 29.8168 30.5442 30.225 30.5442 30.361L31.5646 35.191H29.2177L30.3741 29.7488ZM39.3537 36.7216C39.3537 37.1298 39.0136 37.4019 38.5714 37.4359C38.0952 37.4699 37.483 37.4359 37.0068 37.4359L37.483 39.5107C39.0136 39.5107 40.034 39.5107 41.1905 38.5923C41.3945 38.4223 41.4966 38.3202 41.6326 38.1161C41.7347 37.9801 41.8027 37.8781 41.8707 37.742C42.0408 37.4699 42.1769 37.1638 42.2789 36.8917L42.8571 34.9869C43.2993 33.7284 43.6735 32.5039 44.0816 31.2454C44.1497 31.0413 45.2721 27.674 45.2721 27.5039H42.449L40.9864 32.742C40.9184 32.9121 40.7823 33.3542 40.7823 33.5243L40.136 32.0277C39.932 31.5175 39.7279 31.0413 39.5238 30.5311L38.6394 28.2522C38.5714 28.1161 38.5374 27.9801 38.5034 27.8781C38.4354 27.742 38.3673 27.6059 38.3673 27.5039H35.6803C35.7483 27.708 36.0204 28.3883 36.1224 28.6604C36.2925 29.0345 36.4286 29.4087 36.5986 29.8168L39.3537 36.7216ZM46.1905 30.123V36.8236C46.1905 37.742 46.7007 38.5243 47.415 38.9665C48.7415 39.8168 51.4966 39.8168 52.9252 38.9665C53.2313 38.7624 53.5714 38.4563 53.7755 38.1161C54.2857 37.1978 54.1496 36.3134 54.1496 35.157H51.6326C51.6326 36.2454 51.8707 37.6059 50.4762 37.6059C49.6258 37.6059 48.8435 37.5719 48.8435 36.3815V30.5651C48.8435 29.6127 49.3537 29.3066 50.3401 29.3066C51.8027 29.3066 51.6326 30.4291 51.6326 31.3474H54.1496C54.1496 29.9869 54.2857 28.8985 52.9252 28.0141C52.3469 27.6059 51.7007 27.5039 51.0204 27.4019C50.6803 27.3679 49.7279 27.3338 49.3877 27.4019C48.3673 27.5379 47.415 27.776 46.7687 28.5583C46.4626 28.8985 46.1905 29.5447 46.1905 30.123ZM25.8503 39.4767H28.2993L28.7415 37.5039C28.7415 37.4019 28.7415 37.2998 28.8775 37.2998H32.0748L32.2789 38.3542C32.3469 38.7284 32.449 39.1025 32.517 39.4767H35.2381L34.8639 37.81C34.8299 37.64 34.7619 37.3678 34.7279 37.2318H35.5102L35.034 35.191H34.2857L32.7211 28.4903C32.6871 28.3202 32.6531 28.1502 32.619 27.9801C32.585 27.8781 32.517 27.64 32.517 27.5039H28.6735C28.5374 27.5039 28.5374 27.674 28.5034 27.81C28.2653 29.0685 27.8231 30.5991 27.551 31.9257C27.449 32.4019 27.3129 32.9121 27.2109 33.4223L26.0204 38.6944C25.9864 38.7964 25.9524 38.9325 25.9184 39.0685C25.9184 39.2046 25.8503 39.3406 25.8503 39.4767Z" fill="#EF7D00"/>
<path fill-rule="evenodd" clip-rule="evenodd" d="M35.6462 13.6604V25.5311H38.3673V23.3883H41.3605V25.5311H43.9796C44.0476 25.5311 44.0816 25.4971 44.0816 25.4291V13.6604C44.0816 13.5583 44.0476 13.5583 43.9796 13.5583H41.3605V21.3475H38.3673V13.6604C38.3673 13.5583 38.3333 13.5583 38.2313 13.5583H35.7483C35.6803 13.5583 35.6462 13.5583 35.6462 13.6604ZM25.6122 25.4971H28.2653V21.8577C28.2653 21.7896 28.5714 21.4155 28.6394 21.3475C28.7415 21.2114 29.0136 20.8713 29.0476 20.7692C29.1837 20.8713 29.1496 20.9053 29.2177 21.0413L30.034 22.5379C30.2381 22.9461 31.5986 25.327 31.6326 25.4971H34.4218C34.3877 25.3611 34.0816 24.8168 33.9796 24.6468C33.3673 23.6264 32.7211 22.4019 32.1428 21.3815L30.7143 18.8985C31.3265 17.9801 31.9388 17.1298 32.551 16.2454L33.4354 14.8849C33.6054 14.6468 33.7415 14.4767 33.9115 14.2386C34.0476 14.0005 34.2177 13.7624 34.3537 13.5583H31.6326C31.5986 13.6604 31.3605 14.0005 31.2585 14.1706C31.0884 14.3747 30.9524 14.5447 30.8163 14.7488C30.5442 15.191 30.2721 15.5651 29.966 15.9733L28.2653 18.4223V13.5583H25.6122V25.4971ZM49.8979 15.7692C49.8979 15.9393 50 16.2794 50.034 16.4495C50.102 16.6876 50.17 16.9597 50.2041 17.1638C50.3061 17.64 50.4081 18.1162 50.5442 18.5924L51.1564 21.3815H48.6054C49.0136 19.6808 49.3877 17.81 49.7959 16.1094C49.8299 16.0413 49.8299 16.0413 49.8299 15.9393L49.8979 15.7692ZM45.3401 25.5311H47.7891C47.9592 24.8168 48.0952 24.1026 48.2653 23.4223H51.5646C51.5646 23.6264 51.9728 25.4631 52.0068 25.5311H54.7279L54.2177 23.4223H55L54.5578 21.3815H53.7755L53.0952 18.4223C53.0272 18.1162 52.9592 17.776 52.8571 17.4359L52.0408 13.7284C52.0068 13.6264 52.0408 13.5583 51.9047 13.5583H48.1632C48.0272 13.5583 48.0272 13.7284 47.9932 13.8304L47.3809 16.4835C47.1768 17.5039 46.9388 18.4563 46.7007 19.4767L45.5102 24.7488C45.4422 24.9189 45.3401 25.327 45.3401 25.5311ZM19.932 23.6944C19.3537 23.6944 18.7075 23.6604 18.4694 23.0141C18.4354 22.8441 18.4013 22.674 18.4013 22.4699V16.6196C18.4013 16.1434 18.5034 15.8713 18.7755 15.6672C19.2517 15.259 20.4081 15.293 20.8503 15.7012C21.1224 15.9393 21.1905 16.3134 21.1905 16.7896V22.3679C21.1905 23.1842 20.8163 23.6944 19.932 23.6944ZM15.7143 16.7216C15.7143 17.708 15.6462 22.64 15.7823 23.2862C16.1564 25.0889 17.8911 25.6672 19.7619 25.6672C20.8503 25.6672 21.9388 25.4291 22.585 25.0209C23.2993 24.5447 23.8435 23.8304 23.8435 22.8441V16.2114C23.8435 15.7352 23.6735 15.293 23.4694 14.9529C22.8571 13.8985 21.4626 13.4563 20.1701 13.4563C18.8775 13.4563 17.7211 13.4903 16.7347 14.2386C15.9184 14.8509 15.7143 15.6672 15.7143 16.7216Z" fill="white"/>
</svg>
